<?xml version="1.0" encoding="UTF-8" standalone="no"?>
<!-- Created with Inkscape (http://www.inkscape.org/) -->

<svg
   width="10mm"
   height="10mm"
   viewBox="0 0 10 10"
   version="1.1"
   id="svg5912"
   xml:space="preserve"
   inkscape:version="1.2.2 (b0a8486541, 2022-12-01)"
   sodipodi:docname="heater.svg"
   xmlns:inkscape="http://www.inkscape.org/namespaces/inkscape"
   xmlns:sodipodi="http://sodipodi.sourceforge.net/DTD/sodipodi-0.dtd"
   xmlns="http://www.w3.org/2000/svg"
   xmlns:svg="http://www.w3.org/2000/svg"><sodipodi:namedview
     id="namedview5914"
     pagecolor="#ffffff"
     bordercolor="#666666"
     borderopacity="1.0"
     inkscape:showpageshadow="2"
     inkscape:pageopacity="0.0"
     inkscape:pagecheckerboard="0"
     inkscape:deskcolor="#d1d1d1"
     inkscape:document-units="mm"
     showgrid="false"
     inkscape:zoom="21.75016"
     inkscape:cx="23.241208"
     inkscape:cy="19.953876"
     inkscape:window-width="3072"
     inkscape:window-height="1691"
     inkscape:window-x="3072"
     inkscape:window-y="0"
     inkscape:window-maximized="1"
     inkscape:current-layer="layer1" /><defs
     id="defs5909" /><g
     inkscape:label="Layer 1"
     inkscape:groupmode="layer"
     id="layer1"><path
       style="fill:#000000;fill-opacity:1;stroke:#000000;stroke-width:0.357583px;stroke-linecap:butt;stroke-linejoin:miter;stroke-opacity:1"
       d="M 9.3144176,1.6419192 C 9.2994679,0.59762668 9.0968748,0.27330048 8.7397874,0.25944501 8.4318544,0.25987978 8.2072202,0.79474467 8.2066627,1.6341124 l -0.00494,6.7094345 c 0.00648,0.9817642 0.2813852,1.359645 0.5528148,1.3959861 0.2792718,-0.024042 0.5434991,-0.3542169 0.563773,-1.4281226 z"
       id="path6420-56"
       sodipodi:nodetypes="ccccccc" /><path
       style="fill:#000000;fill-opacity:1;stroke:#000000;stroke-width:0.357583px;stroke-linecap:butt;stroke-linejoin:miter;stroke-opacity:1"
       d="M 7.4919418,1.6419194 C 7.4769921,0.59762668 7.274399,0.27330029 6.9173116,0.25944501 6.6093786,0.25987977 6.3847444,0.79474438 6.3841869,1.6341125 l -0.00494,6.7094344 C 6.3857269,9.3253112 6.6606322,9.7031918 6.9320617,9.739533 7.2113335,9.715491 7.4755609,9.385316 7.4958347,8.3114102 Z"
       id="path6420-3"
       sodipodi:nodetypes="ccccccc" /><path
       style="fill:#000000;fill-opacity:1;stroke:#000000;stroke-width:0.357583px;stroke-linecap:butt;stroke-linejoin:miter;stroke-opacity:1"
       d="M 5.6694657,1.6419192 C 5.654516,0.59762669 5.4519229,0.27330047 5.0948355,0.25944501 4.7869025,0.25987979 4.5622683,0.79474474 4.5617108,1.6341125 L 4.5567708,8.343547 C 4.5632508,9.3253111 4.8381561,9.7031919 5.1095856,9.739533 5.3888577,9.7154909 5.653085,9.3853161 5.6733589,8.3114104 Z"
       id="path6420-5"
       sodipodi:nodetypes="ccccccc" /><path
       style="fill:#010200;fill-opacity:1;stroke:#000000;stroke-width:0.357583px;stroke-linecap:butt;stroke-linejoin:miter;stroke-opacity:1"
       d="M 2.024514,1.6419193 C 2.0095643,0.59762668 1.8069712,0.27330047 1.4498838,0.25944501 1.1419508,0.25987978 0.91731658,0.79474463 0.91675908,1.6341124 l -0.00494,6.7094345 C 0.91829908,9.3253111 1.1932043,9.7031918 1.4646339,9.739533 1.7439057,9.715491 2.008133,9.3853162 2.0284069,8.3114104 Z"
       id="path6420"
       sodipodi:nodetypes="ccccccc" /><path
       style="fill:#000000;fill-opacity:1;stroke:#000000;stroke-width:0.357583px;stroke-linecap:butt;stroke-linejoin:miter;stroke-opacity:1"
       d="M 3.8469898,1.6419193 C 3.8320401,0.59762669 3.629447,0.27330047 3.2723596,0.25944501 2.9644266,0.25987979 2.7397924,0.79474462 2.7392349,1.6341126 L 2.7342949,8.343547 C 2.7407749,9.3253112 3.0156802,9.7031918 3.2871097,9.739533 3.5663815,9.715491 3.8306089,9.3853161 3.8508828,8.3114105 Z"
       id="path6420-7"
       sodipodi:nodetypes="ccccccc" /><path
       style="fill:none;stroke:#000000;stroke-width:0.38405px;stroke-linecap:butt;stroke-linejoin:miter;stroke-opacity:1"
       d="M 0,2.4075935 H 10"
       id="path6907"
       sodipodi:nodetypes="cc" /><path
       style="fill:none;stroke:#000000;stroke-width:0.400513px;stroke-linecap:butt;stroke-linejoin:miter;stroke-opacity:1"
       d="M 10,7.8747915 H 0"
       id="path6909" /></g></svg>
